<svg width="52" height="52" viewBox="0 0 52 52" fill="none" xmlns="http://www.w3.org/2000/svg">
<circle cx="25.6144" cy="25.6144" r="25.6141" transform="rotate(-180 25.6144 25.6144)" fill="#F8F7E8"/>
<path d="M11.1589 24.5546C10.5731 25.1404 10.5731 26.0901 11.1589 26.6759L20.7049 36.2218C21.2906 36.8076 22.2404 36.8076 22.8262 36.2218C23.412 35.636 23.412 34.6863 22.8262 34.1005L14.3409 25.6152L22.8262 17.13C23.412 16.5442 23.412 15.5944 22.8262 15.0086C22.2404 14.4228 21.2906 14.4228 20.7049 15.0086L11.1589 24.5546ZM39.0098 25.6152L39.0098 24.1152L12.2196 24.1152L12.2196 25.6152L12.2196 27.1152L39.0098 27.1152L39.0098 25.6152Z" fill="#B08230"/>
</svg>
